<?xml version="1.0" encoding="UTF-8"?>
<svg id="Layer_1" xmlns="http://www.w3.org/2000/svg" version="1.1" viewBox="0 0 237.3 90">
  <defs>
    <style>
      .st0 {
        fill: #ffffff;
      }
    </style>
  </defs>
  <path class="st0" d="M237.3,90H0V0h237.3v90ZM1,89h235.3V1H1v88Z"/>
  <g>
    <path class="st0" d="M135.5,22h-12.9c-.3-.4-2-2.3-2-2.9v-.4h1l-.6-.5h.6l-.6-.5h-.2v-.4h.7v-.5h0c-.4-.2-.7-.4-.9-.6-.4-.3-.6-.6-.7-.9,0,0,0-.1,0-.2l6.5-5.9,9.3,12.7Z"/>
    <path class="st0" d="M119.6,15.2h0c-.2.6-.7,1.1-1.7,1.7h0v.5h.7v.4h-.2l-.6.5h.6l-.6.5h.9v.4c0,.5-1.8,2.6-2,2.8h-10.8l11-10,2.7,3.2Z"/>
    <circle class="st0" cx="119.7" cy="14.6" r=".3"/>
    <polygon class="st0" points="119.7 14 119.6 14.7 119.7 14.7 119.7 14"/>
  </g>
  <g>
    <g>
      <path class="st0" d="M30.7,73.5h1.9c1,0,1.6.6,1.6,1.4s-.5,1.4-1.5,1.4h-1.1v1.4h-.9v-4.2ZM32.6,75.5c.4,0,.6-.2.6-.6s-.2-.6-.6-.6h-1v1.2h1Z"/>
      <path class="st0" d="M38.9,77.7l-1.6-1.7v1.7h-.9v-4.2h2c1,0,1.6.5,1.6,1.3s-.5,1.2-1.4,1.3l1.6,1.6h-1.2ZM37.2,75.3h1.1c.3,0,.6-.2.6-.5s-.2-.5-.6-.5h-1.1v1Z"/>
      <path class="st0" d="M42.1,73.5h3.3v.8h-2.4v.7h1.7v.8h-1.7v1h2.4v.8h-3.3v-4.2Z"/>
      <path class="st0" d="M48.6,75.1v2.5h-.9v-4.2h.9l1.5,2.7,1.5-2.7h.9v4.2h-.9v-2.5l-1.5,2.6-1.5-2.7Z"/>
      <path class="st0" d="M54.9,73.5h.9v4.2h-.9v-4.2Z"/>
      <path class="st0" d="M58.1,75.6v-2.1h.9v2.1c0,.8.3,1.3,1.1,1.3s1.1-.5,1.1-1.2v-2.1h.9v2.1c0,1.3-.7,2.1-2,2.1s-2-.8-2-2.1Z"/>
      <path class="st0" d="M65.4,75.1v2.5h-.9v-4.2h.9l1.5,2.7,1.5-2.7h.9v4.2h-.9v-2.5l-1.5,2.6-1.5-2.7Z"/>
      <path class="st0" d="M74.6,73.5h.9v1.6h2v-1.6h.9v4.2h-.9v-1.8h-2v1.8h-.9v-4.2Z"/>
      <path class="st0" d="M82.7,73.3l2.4,4.4h-1l-.4-.8h-2l-.4.8h-1l2.4-4.4ZM83.2,76.1l-.6-1.1-.6,1.1h1.2Z"/>
      <path class="st0" d="M86.9,73.5h.9l2.1,2.8v-2.8h.9v4.2h-.9l-2.1-2.8v2.8h-.9v-4.2Z"/>
      <path class="st0" d="M93.3,73.5h1.4c1.5,0,2.4.9,2.4,2.1s-.9,2.1-2.4,2.1h-1.4v-4.2ZM94.7,76.8c1.1,0,1.5-.5,1.5-1.2s-.5-1.3-1.5-1.3h-.5s0,2.5,0,2.5h.5Z"/>
      <path class="st0" d="M101.9,77.2l.5-.7c.4.2.9.4,1.4.4.4,0,.7-.2.7-.4,0-.3-.1-.3-.6-.5h-.5c-.9-.3-1.3-.7-1.3-1.4,0-.7.7-1.2,1.6-1.2.6,0,1.2.2,1.7.4l-.5.7c-.3-.2-.7-.3-1.1-.3-.4,0-.7.1-.7.4,0,.2.2.3.6.4h.6c.9.3,1.3.7,1.3,1.4,0,.7-.7,1.2-1.7,1.2-.7,0-1.4-.2-1.9-.5Z"/>
      <path class="st0" d="M107.7,73.5h3.3v.8h-2.4v.7h1.7v.8h-1.7v1h2.4v.8h-3.3v-4.2Z"/>
      <path class="st0" d="M113.2,73.5h.9v3.3s2.1,0,2.1,0v.8h-3v-4.2Z"/>
      <path class="st0" d="M118.2,73.5h3.3v.8h-2.4v.7h1.7v.8h-1.7v1h2.4v.8h-3.3v-4.2Z"/>
      <path class="st0" d="M123.3,75.6c0-1.2,1-2.2,2.2-2.2s1.3.3,1.8.8l-.7.6c-.2-.3-.6-.5-1-.5-.7,0-1.3.5-1.3,1.3s.6,1.3,1.3,1.3.8-.2,1.1-.5l.7.5c-.4.5-1,.8-1.8.8-1.3,0-2.2-.9-2.2-2.2Z"/>
      <path class="st0" d="M130.3,74.3h-1.3v-.8s3.6,0,3.6,0v.8h-1.3v3.3h-.9v-3.3Z"/>
      <path class="st0" d="M134.6,73.5h3.3v.8h-2.4v.7h1.7v.8h-1.7v1h2.4v.8h-3.3v-4.2Z"/>
      <path class="st0" d="M140.1,73.5h1.4c1.5,0,2.4.9,2.4,2.1s-.9,2.1-2.4,2.1h-1.4v-4.2ZM141.5,76.8c1.1,0,1.5-.5,1.5-1.2s-.5-1.3-1.5-1.3h-.5s0,2.5,0,2.5h.5Z"/>
      <path class="st0" d="M150,74.3h-1.3v-.8s3.6,0,3.6,0v.8h-1.3v3.3h-.9v-3.3Z"/>
      <path class="st0" d="M155.6,73.3l2.4,4.4h-1l-.4-.8h-2l-.4.8h-1l2.4-4.4ZM156.2,76.1l-.6-1.1-.6,1.1h1.2Z"/>
      <path class="st0" d="M159.5,77.2l.5-.7c.4.2.9.4,1.4.4.4,0,.7-.2.7-.4,0-.3-.1-.3-.6-.5h-.5c-.9-.3-1.3-.7-1.3-1.4,0-.7.7-1.2,1.6-1.2.6,0,1.2.2,1.7.4l-.5.7c-.3-.2-.7-.3-1.1-.3-.4,0-.7.1-.7.4,0,.2.2.3.6.4h.6c.9.3,1.3.7,1.3,1.4,0,.7-.7,1.2-1.7,1.2-.7,0-1.4-.2-1.9-.5Z"/>
      <path class="st0" d="M166.1,74.3h-1.3v-.8s3.6,0,3.6,0v.8h-1.3v3.3h-.9v-3.3Z"/>
      <path class="st0" d="M170.3,73.5h.9v4.2h-.9v-4.2Z"/>
      <path class="st0" d="M173.7,73.5h.9l2.1,2.8v-2.8h.9v4.2h-.9l-2.1-2.8v2.8h-.9v-4.2Z"/>
      <path class="st0" d="M179.8,75.6c0-1.2,1-2.2,2.2-2.2s1.3.3,1.8.8l-.7.6c-.2-.3-.6-.5-1-.5-.7,0-1.3.5-1.3,1.3s.6,1.3,1.3,1.3.8-.2,1-.5v-.8h.9v1.1c-.4.6-1.1,1-1.9,1-1.3,0-2.2-.9-2.2-2.2Z"/>
      <path class="st0" d="M188.9,77.2l.5-.7c.4.2.9.4,1.4.4.4,0,.7-.2.7-.4,0-.3-.1-.3-.6-.5h-.5c-.9-.3-1.3-.7-1.3-1.4,0-.7.7-1.2,1.6-1.2.6,0,1.2.2,1.7.4l-.5.7c-.3-.2-.7-.3-1.1-.3-.4,0-.7.1-.7.4,0,.2.2.3.6.4h.6c.9.3,1.3.7,1.3,1.4,0,.7-.7,1.2-1.7,1.2-.7,0-1.4-.2-1.9-.5Z"/>
      <path class="st0" d="M194.6,73.5h3.3v.8h-2.4v.7h1.7v.8h-1.7v1h2.4v.8h-3.3v-4.2Z"/>
      <path class="st0" d="M201,74.3h-1.3v-.8s3.6,0,3.6,0v.8h-1.3v3.3h-.9v-3.3Z"/>
      <path class="st0" d="M204.9,77.2l.5-.7c.4.2.9.4,1.4.4.4,0,.7-.2.7-.4,0-.3-.1-.3-.6-.5h-.5c-.9-.3-1.3-.7-1.3-1.4,0-.7.7-1.2,1.6-1.2.6,0,1.2.2,1.7.4l-.5.7c-.3-.2-.7-.3-1.1-.3-.4,0-.7.1-.7.4,0,.2.2.3.6.4h.6c.9.3,1.3.7,1.3,1.4,0,.7-.7,1.2-1.7,1.2-.7,0-1.4-.2-1.9-.5Z"/>
    </g>
    <g>
      <path class="st0" d="M65,54.3h3.2c3.4,0,5.5,2,5.5,4.9s-2.1,4.8-5.5,4.8h-3.2v-9.7ZM68.2,62.1c2.4,0,3.4-1.1,3.4-2.9s-1.1-2.9-3.4-3h-1.1s0,5.8,0,5.8h1.1Z"/>
      <path class="st0" d="M84.3,64l-3.6-4v4h-2.1v-9.7h4.5c2.2,0,3.5,1.1,3.5,3.1s-1.1,2.9-3.1,3l3.5,3.6h-2.7ZM80.7,58.6h2.6c.8,0,1.3-.4,1.3-1.2s-.5-1.2-1.3-1.2h-2.6v2.4Z"/>
      <path class="st0" d="M91.6,54.3h2.1v9.7h-2.1v-9.7Z"/>
      <path class="st0" d="M99.2,54.3h2l4.8,6.5v-6.5h2.1v9.7h-2l-4.8-6.5v6.5h-2.1v-9.7Z"/>
      <path class="st0" d="M119.8,64l-4.3-4.8v4.8h-2.1v-9.7h2.1v3.8l3.5-3.8h2.7l-4.1,4.3,4.8,5.3h-2.7Z"/>
      <path class="st0" d="M125.3,63l1.1-1.6c.9.6,2.1.9,3.1.9,1,0,1.6-.4,1.7-1,0-.6-.3-.8-1.4-1.1l-1.2-.3c-2.1-.5-2.9-1.5-2.9-2.9,0-1.6,1.6-2.8,3.7-2.8,1.4,0,2.7.4,3.7,1l-1,1.6c-.8-.5-1.6-.8-2.5-.8-1,0-1.6.3-1.6,1,0,.5.4.8,1.3,1l1.3.3c2,.5,2.8,1.3,2.9,2.9,0,1.7-1.6,2.9-3.9,2.9-1.5,0-3.1-.4-4.2-1.1Z"/>
      <path class="st0" d="M144.3,59.2c0-2.8,2.2-5,5-5s3,.7,3.9,1.8l-1.6,1.3c-.5-.7-1.4-1.1-2.4-1.1-1.7,0-3,1.3-3,3s1.3,3,3,3,1.8-.4,2.4-1.2l1.6,1.2c-.9,1.2-2.3,1.9-4,1.9-2.9,0-5-2.2-5-5Z"/>
      <path class="st0" d="M157.4,59.2c0-2.8,2.2-5,5-5s5,2.2,5,5-2.2,5-5,5-5-2.2-5-5ZM165.4,59.2c0-1.8-1.3-3-3-3s-3,1.3-3,3,1.3,3,3,3,3-1.3,3-3Z"/>
      <path class="st0" d="M171.7,61.8h2.2v2.2h-2.2v-2.2Z"/>
    </g>
    <g>
      <g>
        <path class="st0" d="M38.2,29.5h7.6c3.8,0,6.1,2.2,6.1,5.6s-2.1,5.6-5.9,5.6h-4.2v5.6h-3.6v-16.8ZM45.8,37.4c1.6,0,2.4-1,2.4-2.3s-.8-2.3-2.4-2.3h-4v4.6h4Z"/>
        <path class="st0" d="M64.6,39.4l-6.9-10h4.2l4.4,6.5,4.4-6.5h4.2l-6.9,10v6.8h-3.6v-6.8Z"/>
        <path class="st0" d="M91.9,46.3l-6.3-7v7h-3.6v-16.8h7.8c3.8,0,6.2,2,6.2,5.3s-1.9,5-5.5,5.1l6.1,6.3h-4.8ZM85.7,36.9h4.5c1.4,0,2.2-.7,2.2-2.1s-.9-2.1-2.2-2.1h-4.5v4.1Z"/>
        <path class="st0" d="M104.8,29.5h12.9v3.3h-9.3v2.9h6.5v3.3h-6.5v3.9h9.3v3.4h-12.9v-16.8Z"/>
        <path class="st0" d="M126.2,29.5h3.5l8.3,11.4v-11.4h3.6v16.8h-3.5l-8.3-11.3v11.3h-3.6v-16.8Z"/>
        <path class="st0" d="M151.1,29.5h12.9v3.3h-9.3v2.9h6.5v3.3h-6.5v3.9h9.3v3.4h-12.9v-16.8Z"/>
        <path class="st0" d="M179.3,28.7l9.3,17.5h-3.8l-1.7-3.2h-7.8l-1.6,3.2h-3.9l9.5-17.5ZM181.6,40l-2.3-4.4-2.3,4.4h4.6Z"/>
        <path class="st0" d="M195.7,29.5h3.5l8.3,11.4v-11.4h3.6v16.8h-3.5l-8.3-11.3v11.3h-3.6v-16.8Z"/>
      </g>
      <g>
        <path class="st0" d="M27.8,44.7v1.4h-.9s0-3.8,0-3.8h.9v1.4h3.7v1h-3.7Z"/>
        <path class="st0" d="M26.8,40.1v-1h1.7v-2.1h-1.7v-1h4.6v1h-2v2.1h2v1h-4.6Z"/>
        <path class="st0" d="M26.8,33.4v-3.6h.9v2.6h.8v-1.8h.9v1.8h1.1v-2.6h.9v3.6h-4.6Z"/>
      </g>
    </g>
  </g>
</svg>